<svg width="211" height="236" viewBox="0 0 211 236" fill="none" xmlns="http://www.w3.org/2000/svg">
<path d="M134.644 192.851L134.508 190.381C134.47 189.705 134.3 189.043 134.007 188.433C133.713 187.823 133.302 187.276 132.798 186.825C132.293 186.373 131.704 186.026 131.065 185.802C130.426 185.578 129.75 185.482 129.074 185.52L127.097 185.624L124.197 183.098C123.614 182.598 122.859 182.347 122.093 182.396L120.181 182.508C120.116 182.511 120.052 182.527 119.993 182.554C119.935 182.582 119.882 182.621 119.838 182.669C119.795 182.717 119.761 182.774 119.739 182.835C119.717 182.896 119.707 182.961 119.711 183.026L119.774 184.078C119.783 184.206 119.84 184.326 119.936 184.412C120.031 184.498 120.156 184.544 120.284 184.54C121.041 184.54 122.476 184.628 123.002 185.879L120.89 185.998C119.524 186.074 118.244 186.689 117.331 187.708C116.419 188.727 115.947 190.067 116.021 191.433L116.165 193.895C116.173 194.025 116.232 194.146 116.329 194.232C116.426 194.319 116.553 194.364 116.683 194.357L120.962 194.118L125.4 193.871L134.166 193.393C134.233 193.391 134.3 193.375 134.361 193.346C134.423 193.318 134.478 193.277 134.522 193.226C134.567 193.175 134.601 193.116 134.622 193.051C134.643 192.987 134.65 192.918 134.644 192.851Z" fill="#181818"/>
<path d="M134.142 193.369L125.432 193.847L120.994 194.094C121.507 195.773 122.596 197.218 124.07 198.174C127.91 200.708 129.926 201.879 129.926 201.879L130.58 201.377L131.456 200.652C132.488 199.768 133.276 198.634 133.746 197.359C134.216 196.085 134.352 194.711 134.142 193.369Z" fill="#74C948"/>
<path d="M129.926 201.879C129.926 201.879 127.91 200.708 124.069 198.174C122.596 197.218 121.507 195.773 120.994 194.094L116.715 194.333C116.657 196.08 117.147 197.802 118.117 199.257C118.482 199.778 118.91 200.252 119.392 200.668C119.645 200.889 119.911 201.094 120.189 201.281C124.038 203.807 126.046 204.979 126.046 204.979C126.046 204.979 127.639 203.815 130.58 201.377L129.926 201.879Z" fill="#C6E1AC"/>
<path d="M167.191 217.885L168.309 215.678C168.614 215.074 168.798 214.415 168.849 213.74C168.899 213.065 168.817 212.386 168.606 211.743C168.394 211.1 168.058 210.505 167.617 209.991C167.175 209.478 166.637 209.057 166.033 208.751L164.27 207.853L163.021 204.215C162.766 203.491 162.238 202.896 161.55 202.556L159.838 201.696C159.78 201.666 159.717 201.648 159.652 201.643C159.587 201.638 159.522 201.645 159.46 201.665C159.398 201.685 159.341 201.716 159.291 201.759C159.242 201.801 159.201 201.852 159.171 201.91L158.701 202.853C158.644 202.968 158.634 203.101 158.673 203.223C158.712 203.345 158.798 203.447 158.911 203.508C159.567 203.886 160.765 204.679 160.595 206.026L158.707 205.073C157.486 204.456 156.07 204.349 154.77 204.775C153.47 205.201 152.392 206.126 151.773 207.346L150.666 209.55C150.608 209.666 150.599 209.8 150.639 209.924C150.68 210.047 150.768 210.15 150.883 210.209L154.709 212.141L158.676 214.147L166.506 218.115C166.566 218.148 166.631 218.167 166.699 218.173C166.766 218.179 166.834 218.171 166.899 218.149C166.963 218.128 167.022 218.093 167.072 218.048C167.123 218.002 167.163 217.947 167.191 217.885Z" fill="#181818"/>
<path d="M166.498 218.083L158.716 214.142L154.749 212.137C154.354 213.848 154.575 215.644 155.373 217.208C157.432 221.323 158.592 223.345 158.592 223.345L159.409 223.237L160.531 223.048C161.866 222.797 163.115 222.21 164.16 221.341C165.204 220.472 166.009 219.35 166.498 218.083Z" fill="#74C948"/>
<path d="M158.592 223.346C158.592 223.346 157.432 221.324 155.373 217.209C154.575 215.644 154.354 213.849 154.749 212.137L150.923 210.205C150 211.69 149.564 213.426 149.676 215.171C149.731 215.805 149.865 216.429 150.075 217.03C150.183 217.347 150.311 217.658 150.458 217.96C152.528 222.072 153.681 224.09 153.681 224.09C153.681 224.09 155.643 223.879 159.409 223.238L158.592 223.346Z" fill="#C6E1AC"/>
<path d="M156.916 197.189L158.034 194.982C158.339 194.378 158.523 193.719 158.574 193.044C158.625 192.369 158.542 191.69 158.331 191.047C158.119 190.404 157.783 189.808 157.342 189.295C156.901 188.782 156.362 188.36 155.758 188.055L153.995 187.157L152.746 183.519C152.491 182.795 151.963 182.199 151.275 181.86L149.563 181C149.505 180.97 149.442 180.952 149.377 180.947C149.312 180.941 149.247 180.949 149.185 180.969C149.123 180.988 149.066 181.02 149.016 181.062C148.967 181.104 148.926 181.156 148.897 181.213L148.426 182.156C148.369 182.271 148.359 182.404 148.398 182.527C148.438 182.649 148.523 182.751 148.636 182.812C149.292 183.19 150.49 183.983 150.32 185.33L148.432 184.377C147.211 183.76 145.795 183.653 144.495 184.079C143.195 184.505 142.117 185.429 141.498 186.649L140.391 188.853C140.333 188.97 140.324 189.104 140.365 189.228C140.405 189.351 140.493 189.453 140.609 189.513L144.434 191.445L148.401 193.45L156.231 197.419C156.291 197.451 156.357 197.471 156.424 197.477C156.492 197.483 156.56 197.474 156.624 197.453C156.688 197.431 156.747 197.397 156.798 197.351C156.848 197.306 156.888 197.251 156.916 197.189Z" fill="#181818"/>
<path d="M156.223 197.387L148.442 193.446L144.474 191.44C144.079 193.152 144.3 194.947 145.098 196.512C147.157 200.627 148.318 202.649 148.318 202.649L149.135 202.541L150.256 202.351C151.592 202.101 152.841 201.514 153.885 200.645C154.93 199.776 155.735 198.654 156.223 197.387Z" fill="#74C948"/>
<path d="M148.317 202.65C148.317 202.65 147.157 200.627 145.098 196.512C144.3 194.948 144.079 193.152 144.474 191.441L140.649 189.509C139.725 190.993 139.289 192.73 139.401 194.475C139.457 195.108 139.591 195.733 139.8 196.334C139.908 196.651 140.036 196.962 140.183 197.263C142.253 201.375 143.407 203.394 143.407 203.394C143.407 203.394 145.368 203.183 149.134 202.542L148.317 202.65Z" fill="#C6E1AC"/>
<path d="M145.723 208.572L144.37 206.5C144 205.933 143.521 205.445 142.962 205.064C142.403 204.682 141.774 204.414 141.111 204.276C140.448 204.137 139.765 204.13 139.1 204.256C138.434 204.382 137.8 204.637 137.234 205.008L135.574 206.085L131.799 205.348C131.045 205.207 130.265 205.367 129.627 205.793L128.026 206.846C127.971 206.881 127.924 206.926 127.887 206.98C127.85 207.033 127.824 207.093 127.81 207.157C127.796 207.22 127.795 207.286 127.807 207.35C127.819 207.414 127.843 207.475 127.878 207.529L128.459 208.408C128.53 208.515 128.64 208.59 128.766 208.617C128.892 208.644 129.023 208.622 129.132 208.554C129.787 208.175 131.073 207.534 132.154 208.354L130.385 209.514C129.241 210.262 128.44 211.435 128.159 212.774C127.877 214.113 128.139 215.508 128.886 216.654L130.242 218.715C130.313 218.823 130.425 218.899 130.552 218.925C130.68 218.952 130.812 218.927 130.921 218.856L134.507 216.51L138.228 214.077L145.58 209.28C145.637 209.244 145.687 209.197 145.726 209.142C145.765 209.086 145.792 209.023 145.805 208.957C145.819 208.89 145.818 208.822 145.804 208.756C145.79 208.689 145.762 208.627 145.723 208.572Z" fill="#181818"/>
<path d="M145.548 209.271L138.244 214.04L134.524 216.473C135.808 217.67 137.474 218.377 139.227 218.468C143.821 218.742 146.152 218.749 146.152 218.749L146.467 217.987L146.864 216.921C147.315 215.639 147.431 214.264 147.2 212.925C146.97 211.586 146.401 210.328 145.548 209.271Z" fill="#74C948"/>
<path d="M146.152 218.748C146.152 218.748 143.82 218.742 139.227 218.468C137.473 218.377 135.808 217.67 134.523 216.472L130.937 218.819C131.761 220.361 133.047 221.607 134.614 222.383C135.19 222.651 135.798 222.847 136.423 222.967C136.752 223.032 137.085 223.076 137.42 223.1C142.016 223.363 144.341 223.373 144.341 223.373C144.341 223.373 145.139 221.569 146.467 217.987L146.152 218.748Z" fill="#C6E1AC"/>
<path d="M125.93 211.925L125.795 209.455C125.757 208.779 125.587 208.117 125.293 207.507C125 206.897 124.589 206.35 124.084 205.899C123.58 205.448 122.991 205.1 122.352 204.876C121.713 204.652 121.036 204.557 120.36 204.594L118.384 204.698L115.484 202.172C114.901 201.672 114.146 201.421 113.38 201.471L111.467 201.582C111.402 201.585 111.339 201.601 111.28 201.629C111.221 201.656 111.169 201.695 111.125 201.744C111.081 201.792 111.047 201.848 111.026 201.909C111.004 201.97 110.994 202.035 110.997 202.1L111.061 203.152C111.069 203.28 111.127 203.4 111.222 203.486C111.317 203.573 111.443 203.618 111.571 203.614C112.328 203.614 113.762 203.702 114.288 204.953L112.177 205.072C110.811 205.148 109.531 205.763 108.618 206.782C107.705 207.801 107.234 209.141 107.308 210.507L107.451 212.969C107.459 213.099 107.518 213.22 107.615 213.306C107.712 213.393 107.839 213.438 107.969 213.431L112.248 213.192L116.687 212.945L125.452 212.467C125.52 212.465 125.587 212.449 125.648 212.421C125.709 212.392 125.764 212.351 125.809 212.3C125.854 212.249 125.888 212.19 125.909 212.125C125.929 212.061 125.937 211.993 125.93 211.925Z" fill="#181818"/>
<path d="M125.428 212.441L116.719 212.92L112.28 213.167C112.794 214.846 113.883 216.29 115.356 217.246C119.197 219.78 121.213 220.952 121.213 220.952L121.866 220.45L122.743 219.725C123.774 218.84 124.562 217.707 125.032 216.432C125.502 215.157 125.639 213.784 125.428 212.441Z" fill="#74C948"/>
<path d="M121.213 220.952C121.213 220.952 119.197 219.781 115.356 217.247C113.883 216.291 112.794 214.846 112.28 213.167L108.001 213.406C107.944 215.154 108.434 216.876 109.404 218.331C109.769 218.852 110.197 219.325 110.679 219.741C110.931 219.962 111.197 220.167 111.475 220.355C115.324 222.881 117.332 224.052 117.332 224.052C117.332 224.052 118.926 222.889 121.866 220.45L121.213 220.952Z" fill="#C6E1AC"/>
<path d="M145.354 160.457L144.001 158.385C143.631 157.819 143.152 157.331 142.593 156.949C142.034 156.567 141.405 156.3 140.742 156.161C140.079 156.022 139.396 156.016 138.73 156.141C138.065 156.267 137.431 156.522 136.864 156.893L135.205 157.971L131.43 157.233C130.675 157.092 129.896 157.252 129.257 157.678L127.657 158.731C127.602 158.766 127.555 158.811 127.518 158.865C127.481 158.918 127.455 158.978 127.441 159.042C127.427 159.105 127.426 159.171 127.438 159.235C127.449 159.299 127.474 159.36 127.509 159.414L128.09 160.293C128.161 160.4 128.271 160.475 128.397 160.503C128.522 160.53 128.654 160.507 128.763 160.439C129.418 160.06 130.704 159.419 131.785 160.239L130.016 161.399C128.871 162.148 128.07 163.32 127.789 164.659C127.508 165.998 127.77 167.394 128.517 168.54L129.872 170.6C129.944 170.709 130.056 170.784 130.183 170.81C130.31 170.837 130.443 170.812 130.552 170.742L134.138 168.395L137.859 165.962L145.211 161.165C145.268 161.13 145.318 161.083 145.357 161.027C145.396 160.971 145.423 160.909 145.436 160.842C145.45 160.776 145.449 160.707 145.435 160.641C145.421 160.575 145.393 160.512 145.354 160.457Z" fill="#181818"/>
<path d="M145.178 161.155L137.874 165.924L134.154 168.357C135.439 169.555 137.104 170.261 138.858 170.352C143.451 170.626 145.783 170.633 145.783 170.633L146.098 169.871L146.494 168.805C146.945 167.524 147.061 166.148 146.831 164.809C146.6 163.47 146.031 162.212 145.178 161.155Z" fill="#74C948"/>
<path d="M145.783 170.633C145.783 170.633 143.451 170.626 138.858 170.352C137.104 170.261 135.439 169.554 134.154 168.357L130.568 170.703C131.392 172.246 132.677 173.492 134.245 174.267C134.821 174.535 135.429 174.732 136.054 174.851C136.383 174.916 136.716 174.96 137.051 174.984C141.647 175.247 143.972 175.257 143.972 175.257C143.972 175.257 144.77 173.453 146.097 169.871L145.783 170.633Z" fill="#C6E1AC"/>
<path d="M74.2078 217.885L75.3256 215.678C75.6309 215.073 75.8143 214.415 75.8652 213.74C75.9161 213.065 75.8335 212.386 75.6221 211.743C75.4108 211.1 75.0748 210.504 74.6334 209.991C74.192 209.478 73.6538 209.056 73.0495 208.751L71.2863 207.852L70.0374 204.215C69.7823 203.491 69.2543 202.895 68.5661 202.555L66.8541 201.696C66.7964 201.666 66.7333 201.648 66.6686 201.642C66.6038 201.637 66.5387 201.645 66.4768 201.664C66.4149 201.684 66.3575 201.716 66.308 201.758C66.2584 201.8 66.2177 201.851 66.188 201.909L65.7173 202.852C65.6603 202.967 65.6504 203.1 65.6897 203.222C65.729 203.345 65.8145 203.447 65.9279 203.507C66.5835 203.886 67.7818 204.679 67.6117 206.025L65.7232 205.073C64.5023 204.456 63.0863 204.349 61.7863 204.775C60.4863 205.201 59.4085 206.125 58.7895 207.345L57.6826 209.549C57.6249 209.666 57.6153 209.8 57.656 209.923C57.6967 210.047 57.7844 210.149 57.9 210.208L61.7254 212.141L65.6927 214.146L73.5228 218.115C73.5824 218.147 73.648 218.167 73.7155 218.173C73.7831 218.178 73.8511 218.17 73.9153 218.149C73.9796 218.127 74.0387 218.092 74.089 218.047C74.1393 218.002 74.1797 217.946 74.2078 217.885Z" fill="#181818"/>
<path d="M73.5145 218.082L65.7327 214.142L61.7654 212.136C61.3705 213.847 61.5913 215.643 62.3892 217.207C64.4485 221.322 65.6087 223.345 65.6087 223.345L66.4256 223.237L67.5472 223.047C68.8826 222.797 70.1319 222.209 71.1763 221.34C72.2207 220.471 73.0256 219.35 73.5145 218.082Z" fill="#74C948"/>
<path d="M65.6087 223.345C65.6087 223.345 64.4485 221.323 62.3892 217.208C61.5914 215.644 61.3705 213.848 61.7654 212.137L57.9401 210.204C57.0164 211.689 56.5802 213.425 56.6924 215.17C56.7481 215.804 56.8821 216.429 57.0913 217.029C57.1996 217.347 57.3276 217.658 57.4746 217.959C59.5447 222.071 60.6981 224.09 60.6981 224.09C60.6981 224.09 62.66 223.879 66.4256 223.237L65.6087 223.345Z" fill="#C6E1AC"/>
<path d="M52.7394 208.572L51.387 206.5C51.0164 205.933 50.5378 205.445 49.9785 205.064C49.4193 204.682 48.7904 204.414 48.1277 204.276C47.4649 204.137 46.7814 204.13 46.1161 204.256C45.4508 204.382 44.8168 204.637 44.2502 205.008L42.5905 206.085L38.8156 205.348C38.0612 205.207 37.2815 205.367 36.6431 205.793L35.0427 206.846C34.988 206.881 34.9408 206.926 34.9038 206.98C34.8667 207.033 34.8405 207.093 34.8268 207.157C34.813 207.22 34.8119 207.286 34.8235 207.35C34.8352 207.414 34.8593 207.475 34.8945 207.529L35.4756 208.408C35.5469 208.515 35.657 208.59 35.7826 208.617C35.9082 208.644 36.0394 208.622 36.1484 208.554C36.804 208.175 38.09 207.534 39.171 208.354L37.402 209.514C36.2571 210.262 35.4562 211.435 35.1751 212.774C34.8941 214.113 35.1558 215.508 35.9028 216.654L37.2581 218.715C37.3301 218.823 37.4417 218.899 37.5689 218.925C37.6962 218.952 37.8287 218.927 37.9378 218.856L41.524 216.51L45.2443 214.077L52.5963 209.28C52.6541 209.244 52.7039 209.197 52.7427 209.142C52.7815 209.086 52.8085 209.023 52.8219 208.957C52.8353 208.89 52.8349 208.822 52.8207 208.756C52.8065 208.689 52.7789 208.627 52.7394 208.572Z" fill="#181818"/>
<path d="M52.5643 209.271L45.2606 214.04L41.5403 216.473C42.8248 217.67 44.4902 218.377 46.244 218.468C50.8373 218.742 53.1689 218.749 53.1689 218.749L53.4837 217.987L53.8803 216.921C54.3313 215.639 54.4471 214.264 54.2168 212.925C53.9865 211.586 53.4176 210.328 52.5643 209.271Z" fill="#74C948"/>
<path d="M53.1684 218.748C53.1684 218.748 50.8368 218.742 46.2435 218.468C44.4897 218.377 42.8243 217.67 41.5398 216.472L37.9535 218.819C38.7775 220.361 40.0631 221.607 41.6304 222.383C42.2071 222.651 42.8148 222.847 43.4397 222.967C43.7689 223.032 44.1019 223.076 44.4366 223.1C49.0328 223.363 51.3575 223.373 51.3575 223.373C51.3575 223.373 52.156 221.569 53.4832 217.987L53.1684 218.748Z" fill="#C6E1AC"/>
<path d="M32.9464 211.925L32.8109 209.455C32.7732 208.779 32.6028 208.117 32.3093 207.507C32.0158 206.897 31.605 206.35 31.1003 205.899C30.5957 205.448 30.0071 205.1 29.3681 204.876C28.7292 204.652 28.0524 204.557 27.3764 204.594L25.4002 204.698L22.4997 202.172C21.9168 201.672 21.1618 201.421 20.396 201.471L18.4835 201.582C18.4186 201.585 18.3549 201.601 18.2962 201.629C18.2374 201.656 18.1847 201.695 18.141 201.744C18.0973 201.792 18.0636 201.848 18.0417 201.909C18.0198 201.97 18.0102 202.035 18.0134 202.1L18.0771 203.152C18.0853 203.28 18.1432 203.4 18.2384 203.486C18.3336 203.573 18.4587 203.618 18.5871 203.614C19.3441 203.614 20.7785 203.702 21.3044 204.953L19.1927 205.072C17.8268 205.148 16.5469 205.763 15.6341 206.782C14.7212 207.801 14.2501 209.141 14.324 210.507L14.4674 212.969C14.4756 213.099 14.5346 213.22 14.6315 213.306C14.7284 213.393 14.8556 213.438 14.9853 213.431L19.2644 213.192L23.7029 212.945L32.4682 212.467C32.536 212.465 32.6027 212.449 32.664 212.421C32.7254 212.392 32.7803 212.351 32.8251 212.3C32.8699 212.249 32.9039 212.19 32.9247 212.125C32.9456 212.061 32.9529 211.993 32.9464 211.925Z" fill="#181818"/>
<path d="M32.4449 212.441L23.7353 212.92L19.2969 213.167C19.8105 214.846 20.8996 216.29 22.3727 217.246C26.2136 219.78 28.2296 220.952 28.2296 220.952L28.883 220.45L29.7595 219.725C30.7909 218.84 31.579 217.707 32.049 216.432C32.519 215.157 32.6553 213.784 32.4449 212.441Z" fill="#74C948"/>
<path d="M28.229 220.952C28.229 220.952 26.213 219.781 22.3722 217.247C20.899 216.291 19.8099 214.846 19.2963 213.167L15.0172 213.406C14.9597 215.154 15.4501 216.876 16.4197 218.331C16.7848 218.852 17.2131 219.325 17.6946 219.741C17.9473 219.962 18.2134 220.167 18.4915 220.355C22.3403 222.881 24.3484 224.052 24.3484 224.052C24.3484 224.052 25.9421 222.889 28.8824 220.45L28.229 220.952Z" fill="#C6E1AC"/>
<path d="M51.6609 153.686L53.7324 152.333C54.299 151.963 54.7871 151.484 55.1687 150.925C55.5503 150.366 55.8181 149.737 55.9567 149.074C56.0952 148.411 56.1019 147.728 55.9763 147.062C55.8508 146.397 55.5953 145.763 55.2247 145.196L54.1469 143.537L54.8842 139.762C55.0253 139.007 54.8657 138.228 54.4397 137.589L53.3868 135.989C53.3517 135.934 53.3062 135.887 53.2528 135.85C53.1994 135.813 53.1393 135.787 53.0758 135.773C53.0123 135.759 52.9467 135.758 52.8827 135.77C52.8188 135.781 52.7578 135.806 52.7032 135.841L51.8242 136.422C51.7172 136.493 51.6422 136.603 51.6151 136.729C51.588 136.854 51.6109 136.986 51.6789 137.095C52.0574 137.75 52.6987 139.036 51.8782 140.117L50.7188 138.348C49.97 137.203 48.7974 136.403 47.4586 136.121C46.1197 135.84 44.7241 136.102 43.578 136.849L41.5174 138.204C41.4092 138.276 41.3337 138.388 41.3072 138.515C41.2808 138.642 41.3055 138.775 41.3761 138.884L43.7227 142.47L46.1558 146.191L50.9525 153.543C50.988 153.6 51.035 153.65 51.0906 153.689C51.1462 153.728 51.2091 153.755 51.2756 153.768C51.342 153.782 51.4105 153.781 51.4768 153.767C51.5431 153.753 51.6057 153.725 51.6609 153.686Z" fill="#181818"/>
<path d="M50.9622 153.511L46.1934 146.207L43.7602 142.487C42.5626 143.772 41.8561 145.437 41.7649 147.191C41.4908 151.784 41.4843 154.116 41.4843 154.116L42.2458 154.431L43.3121 154.827C44.5936 155.278 45.9692 155.394 47.3082 155.164C48.6472 154.933 49.905 154.364 50.9622 153.511Z" fill="#74C948"/>
<path d="M41.4836 154.116C41.4836 154.116 41.4901 151.784 41.7641 147.191C41.8554 145.437 42.5619 143.772 43.7595 142.487L41.4129 138.901C39.8707 139.725 38.6247 141.01 37.8494 142.578C37.5808 143.154 37.3846 143.762 37.2654 144.387C37.2004 144.716 37.156 145.049 37.1324 145.384C36.8692 149.98 36.8588 152.305 36.8588 152.305C36.8588 152.305 38.6632 153.103 42.2451 154.431L41.4836 154.116Z" fill="#C6E1AC"/>
<g filter="url(#filter0_b_1963_35826)">
<path d="M211.012 63.1812L211.012 96.5598H153.792V63.1812H196.707H211.012Z" fill="#669350"/>
</g>
<rect x="201.476" y="94.1758" width="1.19209" height="28.6102" transform="rotate(180 201.476 94.1758)" fill="#BCEAA3"/>
<rect x="182.402" y="94.1758" width="1.19209" height="28.6102" transform="rotate(180 182.402 94.1758)" fill="#BCEAA3"/>
<rect x="163.329" y="94.1758" width="1.19209" height="28.6102" transform="rotate(180 163.329 94.1758)" fill="#BCEAA3"/>
<g filter="url(#filter1_b_1963_35826)">
<path d="M87.035 63.1812H63.1931C44.7586 63.1812 29.8145 78.1253 29.8145 96.5598V119.21H63.1931V102.52C63.1931 99.2284 65.8617 96.5598 69.1535 96.5598H120.414V63.1812H87.035Z" fill="#669350"/>
</g>
<rect x="112.069" y="94.1758" width="1.19209" height="28.6102" transform="rotate(180 112.069 94.1758)" fill="#BCEAA3"/>
<rect x="92.9951" y="94.1758" width="1.19209" height="28.6102" transform="rotate(180 92.9951 94.1758)" fill="#BCEAA3"/>
<rect x="73.9219" y="94.1758" width="1.19209" height="28.6102" transform="rotate(180 73.9219 94.1758)" fill="#BCEAA3"/>
<path d="M62.1451 70.334V70.334C48.9776 70.334 38.3032 81.0084 38.3032 94.1759V94.1759" stroke="#BCEAA3" stroke-width="4.76837" stroke-linecap="round"/>
<path d="M63.1929 119.209L29.8142 119.209L29.8142 114.441L63.1929 114.441L63.1929 119.209Z" fill="#191919"/>
<rect x="26.2383" y="119.209" width="40.5312" height="17.8814" fill="#C6E1AB"/>
<rect x="26.2383" y="119.209" width="10.7288" height="17.8814" fill="#7BC148"/>
<rect x="40.5435" y="119.209" width="5.96047" height="17.8814" fill="#7BC148"/>
<rect x="50.0801" y="119.209" width="1.19209" height="17.8814" fill="#7BC148"/>
<rect width="40.5312" height="17.8814" transform="matrix(-1 0 0 1 157.368 120.401)" fill="#C6E1AB"/>
<rect width="9.53675" height="17.8814" transform="matrix(-1 0 0 1 126.374 120.401)" fill="#7BC148"/>
<rect width="3.57628" height="17.8814" transform="matrix(-1 0 0 1 133.526 120.401)" fill="#7BC148"/>
<rect width="1.19209" height="17.8814" transform="matrix(-1 0 0 1 137.103 120.401)" fill="#7BC148"/>
<path d="M177.634 0H153.792C135.358 0 120.414 14.9441 120.414 33.3786V120.401C133.449 120.401 140.757 120.401 153.792 120.401V39.3391C153.792 36.0472 156.461 33.3786 159.753 33.3786H211.013V0H177.634Z" fill="#191919"/>
<rect x="201.476" y="30.9946" width="1.19209" height="28.6102" transform="rotate(180 201.476 30.9946)" fill="#486B4D"/>
<rect x="182.402" y="30.9946" width="1.19209" height="28.6102" transform="rotate(180 182.402 30.9946)" fill="#486B4D"/>
<rect x="163.329" y="30.9946" width="1.19209" height="28.6102" transform="rotate(180 163.329 30.9946)" fill="#486B4D"/>
<rect x="151.408" y="41.7231" width="1.19209" height="28.6102" transform="rotate(90 151.408 41.7231)" fill="#486B4D"/>
<rect x="151.408" y="60.7969" width="1.19209" height="28.6102" transform="rotate(90 151.408 60.7969)" fill="#486B4D"/>
<rect x="151.408" y="79.8706" width="1.19209" height="28.6102" transform="rotate(90 151.408 79.8706)" fill="#486B4D"/>
<rect x="151.408" y="98.9434" width="1.19209" height="28.6102" transform="rotate(90 151.408 98.9434)" fill="#486B4D"/>
<path d="M153.792 120.402L120.414 120.402L120.414 115.633L153.792 115.633L153.792 120.402Z" fill="#191919"/>
<path d="M152.745 7.15283V7.15283C139.577 7.15283 128.903 17.8272 128.903 30.9947V30.9947" stroke="#486B4D" stroke-width="4.76837" stroke-linecap="round"/>
<rect x="134.208" y="148.359" width="1.19209" height="4.76837" rx="0.596047" fill="#C6E1AB"/>
<rect x="137.784" y="145.974" width="1.19209" height="4.76837" rx="0.596047" fill="#C6E1AB"/>
<rect x="141.36" y="148.359" width="1.19209" height="4.76837" rx="0.596047" fill="#C6E1AB"/>
<defs>
<filter id="filter0_b_1963_35826" x="151.407" y="60.797" width="61.9891" height="38.1468" filterUnits="userSpaceOnUse" color-interpolation-filters="sRGB">
<feFlood flood-opacity="0" result="BackgroundImageFix"/>
<feGaussianBlur in="BackgroundImageFix" stdDeviation="1.19209"/>
<feComposite in2="SourceAlpha" operator="in" result="effect1_backgroundBlur_1963_35826"/>
<feBlend mode="normal" in="SourceGraphic" in2="effect1_backgroundBlur_1963_35826" result="shape"/>
</filter>
<filter id="filter1_b_1963_35826" x="27.4303" y="60.797" width="95.3675" height="60.7967" filterUnits="userSpaceOnUse" color-interpolation-filters="sRGB">
<feFlood flood-opacity="0" result="BackgroundImageFix"/>
<feGaussianBlur in="BackgroundImageFix" stdDeviation="1.19209"/>
<feComposite in2="SourceAlpha" operator="in" result="effect1_backgroundBlur_1963_35826"/>
<feBlend mode="normal" in="SourceGraphic" in2="effect1_backgroundBlur_1963_35826" result="shape"/>
</filter>
</defs>
</svg>
